<?xml version="1.0" encoding="UTF-8" standalone="no"?>
<!-- Created with Inkscape (http://www.inkscape.org/) -->

<svg
   xmlns:dc="http://purl.org/dc/elements/1.1/"
   xmlns:cc="http://creativecommons.org/ns#"
   xmlns:rdf="http://www.w3.org/1999/02/22-rdf-syntax-ns#"
   xmlns:svg="http://www.w3.org/2000/svg"
   xmlns="http://www.w3.org/2000/svg"
   xmlns:sodipodi="http://sodipodi.sourceforge.net/DTD/sodipodi-0.dtd"
   xmlns:inkscape="http://www.inkscape.org/namespaces/inkscape"
   width="744.09448819"
   height="1052.3622047"
   id="svg2"
   version="1.1"
   inkscape:version="0.48.2 r9819"
   sodipodi:docname="dick.svg">
  <defs
     id="defs4">
    <filter
       id="filter3798"
       x="-0.25"
       width="1.5"
       y="-0.25"
       height="1.5"
       inkscape:menu="Non realistic 3D shaders"
       inkscape:menu-tooltip="Non realistic frosted glass imitation"
       inkscape:label="Frosted glass"
       color-interpolation-filters="sRGB">
      <feGaussianBlur
         id="feGaussianBlur3800"
         result="result8"
         stdDeviation="7" />
      <feComposite
         id="feComposite3802"
         in2="result8"
         in="result8"
         operator="xor"
         result="result6" />
      <feDisplacementMap
         id="feDisplacementMap3804"
         in2="result6"
         result="result4"
         scale="75"
         yChannelSelector="A"
         xChannelSelector="A"
         in="result6" />
      <feComposite
         id="feComposite3806"
         in2="result4"
         k1="2"
         in="SourceGraphic"
         operator="arithmetic"
         result="result2" />
      <feComposite
         id="feComposite3808"
         in2="result2"
         operator="in"
         in="result6"
         result="fbSourceGraphic" />
    </filter>
    <filter
       inkscape:collect="always"
       id="filter3822"
       x="-0.051650798"
       width="1.1033016"
       y="-0.3136532"
       height="1.6273064">
      <feGaussianBlur
         inkscape:collect="always"
         stdDeviation="2.8592406"
         id="feGaussianBlur3824" />
    </filter>
    <filter
       inkscape:collect="always"
       id="filter3844"
       x="-0.06737881"
       width="1.1347576"
       y="-0.88436017"
       height="2.7687203">
      <feGaussianBlur
         inkscape:collect="always"
         stdDeviation="2.1151483"
         id="feGaussianBlur3846" />
    </filter>
    <filter
       color-interpolation-filters="sRGB"
       inkscape:collect="always"
       id="filter3844-7"
       x="-0.067378812"
       width="1.1347576"
       y="-0.88436019"
       height="2.7687204">
      <feGaussianBlur
         inkscape:collect="always"
         stdDeviation="2.1151483"
         id="feGaussianBlur3846-4" />
    </filter>
  </defs>
  <sodipodi:namedview
     id="base"
     pagecolor="#ffffff"
     bordercolor="#666666"
     borderopacity="1.0"
     inkscape:pageopacity="0.0"
     inkscape:pageshadow="2"
     inkscape:zoom="0.98994949"
     inkscape:cx="249.19233"
     inkscape:cy="541.43184"
     inkscape:document-units="px"
     inkscape:current-layer="layer2"
     showgrid="false"
     inkscape:window-width="1920"
     inkscape:window-height="1058"
     inkscape:window-x="-8"
     inkscape:window-y="-8"
     inkscape:window-maximized="1" />
  <metadata
     id="metadata7">
    <rdf:RDF>
      <cc:Work
         rdf:about="">
        <dc:format>image/svg+xml</dc:format>
        <dc:type
           rdf:resource="http://purl.org/dc/dcmitype/StillImage" />
        <dc:title />
      </cc:Work>
    </rdf:RDF>
  </metadata>
  <g
     inkscape:groupmode="layer"
     id="layer2"
     inkscape:label="dick"
     style="opacity:1">
    <path
       style="fill:#d7a647;fill-opacity:1;stroke:#000000;stroke-width:1px;stroke-linecap:butt;stroke-linejoin:miter;stroke-opacity:1"
       d="M 228.57143,416.6479 C 169.73704,415.28333 115.18913,443.92415 60,468.07647 c -7.959137,13.586 -25.410544,28.52804 -8.571429,38.57143 37.142856,35.22134 74.285709,50.13875 111.428569,62.85714 L 200,516.6479 151.42857,490.93361 227.14286,455.21933 z"
       id="path3770"
       inkscape:connector-curvature="0"
       sodipodi:nodetypes="cccccccc" />
    <path
       style="fill:#d7a647;stroke:#000000;stroke-width:1px;stroke-linecap:butt;stroke-linejoin:miter;stroke-opacity:1;fill-opacity:1"
       d="m 391.42857,476.6479 c 11.42857,34.29551 22.85715,59.50073 34.28572,78.57143 30.38587,5.38752 61.03651,10.61618 72.85714,27.14285 l -47.14286,42.85715 c -82.32607,-23.34431 -133.80117,-52.85882 -140,-91.42858 z"
       id="path3772"
       inkscape:connector-curvature="0"
       sodipodi:nodetypes="cccccc" />
    <path
       style="fill:#0c0d0f;stroke:#000000;stroke-width:1px;stroke-linecap:butt;stroke-linejoin:miter;stroke-opacity:1;fill-opacity:1"
       d="m 107.85714,914.50504 c -34.637878,4.04019 -72.421887,11.46316 -88.571426,32.14285 l 234.285716,0.71429 -30.71429,-31.42857 z"
       id="path3828"
       inkscape:connector-curvature="0"
       sodipodi:nodetypes="ccccc" />
    <path
       style="fill:#0c0d0f;fill-opacity:1;stroke:#000000;stroke-width:1px;stroke-linecap:butt;stroke-linejoin:miter;stroke-opacity:1"
       d="m 407.88371,912.69501 c 26.16179,-4.4359 72.79002,14.86174 89.07651,35.67838 l -229.23496,0.71429 c 7.76092,-13.26301 12.77113,-29.62058 30.71429,-31.42857 z"
       id="path3828-0"
       inkscape:connector-curvature="0"
       sodipodi:nodetypes="ccccc" />
    <path
       style="fill:#e6e6e6;stroke:#000000;stroke-width:1.18907607000000000px;stroke-linecap:butt;stroke-linejoin:miter;stroke-opacity:1;filter:url(#filter3844-7)"
       d="m -41.726772,793.72086 c 6.942872,-5.68633 49.8807525,-4.7527 75.340543,-4.54568 l -7.85541,5.55583 c -19.0434205,-2.67406 -48.441714,-2.22563 -67.485133,-1.01015 z"
       id="path3834-9"
       inkscape:connector-curvature="0"
       sodipodi:nodetypes="cccc"
       transform="matrix(1.2883656,0.09663331,-0.16137251,2.1515024,530.26923,-771.53169)" />
    <path
       style="fill:#0c0d0f;stroke:#000000;stroke-width:1px;stroke-linecap:butt;stroke-linejoin:miter;stroke-opacity:1;fill-opacity:1"
       d="M 97.142857,775.93361 C 98.946,793.78378 95.284659,813.81975 115,824.50504 c -13.97484,5.88515 -49.665217,8.15103 -10.71429,22.85714 -16.196545,23.80952 -18.266285,47.61905 -13.571424,71.42857 52.569064,-3.38384 99.808764,8.15451 142.857144,31.42858 l 29.28571,-2.85715 -14.28571,-195 18.57143,195 c 71.39082,-30.20034 114.97728,-32.59633 156.42857,-32.85714 -1.11432,-23.43619 -1.12276,-46.98296 -20.71429,-68.57143 4.96657,-5.94268 38.83104,-12.91744 -4.28571,-17.14286 7.72027,-57.64154 -14.39705,-108.65251 -22.14286,-162.85714 l -263.57143,8.57143 z"
       id="path3826"
       inkscape:connector-curvature="0"
       sodipodi:nodetypes="cccccccccccccc" />
    <path
       style="fill:#d7a647;fill-opacity:1;stroke:#000000;stroke-width:1px;stroke-linecap:butt;stroke-linejoin:miter;stroke-opacity:1"
       d="m 208.21428,429.50504 -24.64285,43.57143 c -14.8027,7.98737 -8.79903,18.94707 2.85714,30.71428 -31.40999,-1.58645 -44.32353,2.60723 -15,20 -40.9541,22.67359 -89.251682,46.37785 -25,54.28572 -0.45092,4.18542 -3.17338,8.82515 0.71429,12.14285 -67.028811,36.82206 -81.906901,155.66898 -80.714289,190.71429 50.043479,16.83954 100.217639,33.48307 161.428569,33.57143 7.11717,-33.97682 16.46067,-67.21152 29.28572,-99.28571 -11.2339,-36.41617 -10.092,-74.12338 -8.21429,-114.28572 7.3851,-11.68996 24.90968,-31.8295 37.5,-47.85714 -10.77924,15.95898 -29.76976,33.32715 -37.5,48.21428 -3.13706,40.51194 -3.22211,78.55994 10.35714,115.35715 10.11193,33.92145 17.9805,65.59954 24.28572,95.71428 52.43717,-0.37697 103.75189,-7.48866 154.28571,-19.28571 -14.83152,-67.34615 -34.47286,-132.28737 -75.71428,-186.42857 42.99661,-0.0415 36.28417,-21.01319 7.14285,-51.42858 16.73819,-6.11904 39.52952,-12.04283 -0.71428,-20 7.35758,-1.15007 14.65429,-2.40157 16.42857,-12.85714 -7.44383,-19.44857 0.95167,-42.85696 1.42857,-64.28571 z"
       id="path3831"
       inkscape:connector-curvature="0"
       sodipodi:nodetypes="ccccccccccccccccccccc" />
    <path
       style="fill:#f9f9f9;fill-opacity:1;stroke:#000000;stroke-width:1px;stroke-linecap:butt;stroke-linejoin:miter;stroke-opacity:1"
       d="m 259.6092,417.48131 134.35029,28.28427 -93.14325,96.00474 z"
       id="path3809"
       inkscape:connector-curvature="0"
       sodipodi:nodetypes="cccc" />
    <path
       style="fill:#f7b28b;fill-opacity:1;stroke:#000000;stroke-width:1px;stroke-linecap:butt;stroke-linejoin:miter;stroke-opacity:1"
       d="m 348.57143,153.79075 -34.28572,74.28572 C 306.88034,219.86524 299.31167,214.6875 290,213.79075 c -14.43007,-1.38967 -26.47791,19.5054 -12.85714,32.85715 7.92968,7.77307 22.06549,1.10108 34.28571,-4.28572 -26.86057,32.18063 -36.24128,114.61584 -48.57143,188.57143 l 110.71429,17.85715 42.14286,-150.71429 c -21.6382,-8.7671 -16.56413,-23.31695 -18.57143,-34.28572 0.58709,14.74964 3.06733,30.36493 25.71428,37.14286 49.73381,7.63955 41.69903,-19.03639 27.14286,-34.28571 l -30,-31.42857 20,-58.57143 z"
       id="path3765"
       inkscape:connector-curvature="0"
       sodipodi:nodetypes="ccssccccccsccc" />
    <path
       style="fill:#0d111a;fill-opacity:1;stroke:#000000;stroke-width:1px;stroke-linecap:butt;stroke-linejoin:miter;stroke-opacity:1"
       d="m 325.7742,428.59299 -24.74874,0 c 2.63992,11.05268 4.78166,22.72808 12.62691,27.27411 l -39.45107,49.57798 10.56454,48.97753 28.4217,-29.2752 16.12219,-66.24985 c 7.94252,-4.26874 16.79358,-2.63196 22.22336,-23.23351 z"
       id="path3807"
       inkscape:connector-curvature="0"
       sodipodi:nodetypes="ccccccccc" />
    <path
       style="fill:#f2f2f2;stroke:#000000;stroke-width:1px;stroke-linecap:butt;stroke-linejoin:miter;stroke-opacity:1"
       d="m 407.85714,200.21932 c -11.42649,-1.44512 -34.28571,4.28572 -34.28571,4.28572 -5.82033,1.9637 -19.9095,15.52089 2.85714,23.57143 11.33304,4.00749 21.66256,1.21102 32.85714,0 l 14.28572,10.71428 c 23.06855,-3.6112 21.80898,-22.50021 11.42857,-27.85714 0,0 -17.49273,-9.49383 -27.14286,-10.71429 z"
       id="path3767"
       inkscape:connector-curvature="0"
       sodipodi:nodetypes="scsccss" />
    <path
       sodipodi:type="arc"
       style="fill:#000000;fill-opacity:1;stroke:#030303;stroke-width:1;stroke-miterlimit:4;stroke-opacity:1;stroke-dasharray:none"
       id="path3769"
       sodipodi:cx="-107.14286"
       sodipodi:cy="124.86218"
       sodipodi:rx="7.1428571"
       sodipodi:ry="9.6428576"
       d="m -100,124.86218 a 7.1428571,9.6428576 0 1 1 -1.83222,-6.44863 l -5.31064,6.44863 z"
       sodipodi:start="0"
       sodipodi:end="5.5506626"
       transform="matrix(0.6830986,0,0,0.6830986,494.33853,140.64043)" />
    <path
       sodipodi:type="arc"
       style="opacity:1;fill:#000000;fill-opacity:1;stroke:#030303;stroke-width:1;stroke-miterlimit:4;stroke-opacity:1;stroke-dasharray:none"
       id="path3769-1"
       sodipodi:cx="-107.14286"
       sodipodi:cy="124.86218"
       sodipodi:rx="7.1428571"
       sodipodi:ry="9.6428576"
       d="m -100,124.86218 a 7.1428571,9.6428576 0 1 1 -1.83222,-6.44863 l -5.31064,6.44863 z"
       sodipodi:start="0"
       sodipodi:end="5.5506626"
       transform="matrix(0.6830986,0,0,0.6830986,473.90342,134.92614)" />
    <path
       style="fill:#010101;fill-opacity:1;stroke:#000000;stroke-width:1px;stroke-linecap:butt;stroke-linejoin:miter;stroke-opacity:1"
       d="m 398.57143,278.07647 -60,19.28571 c -15.43699,5.59337 -10.91571,14.32519 7.85714,8.57143 l 22.85714,-2.85714 c 0.113,8.11259 -0.74741,17.10125 17.85715,8.57143 -3.79745,18.03219 -0.67057,24.73365 16.42857,8.57142 5,5.61996 10,6.95948 15,-0.71428 5.05618,3.02568 16.6319,25.61 11.42857,-2.14286 l -3.92857,-16.07142 c -12.93382,-3.62228 -24.05555,-8.20477 -27.5,-23.21429 z"
       id="path3789"
       inkscape:connector-curvature="0"
       sodipodi:nodetypes="cccccccccc" />
    <path
       style="fill:none;stroke:#a05a2c;stroke-width:2;stroke-linecap:butt;stroke-linejoin:miter;stroke-opacity:1;stroke-miterlimit:4;stroke-dasharray:none"
       d="m 380,320.93361 -15.71429,28.21429 -13.92857,-2.85715"
       id="path3791"
       inkscape:connector-curvature="0" />
    <path
       style="fill:none;stroke:#a05a2c;stroke-width:2;stroke-linecap:butt;stroke-linejoin:miter;stroke-opacity:1;stroke-miterlimit:4;stroke-dasharray:none"
       d="m 324.28571,405.57647 c 11.821,16.44275 20.05365,12.07307 27.14286,1.07143 9.23882,10.1739 14.91395,8.23124 14.64286,-13.92858"
       id="path3793"
       inkscape:connector-curvature="0"
       sodipodi:nodetypes="ccc" />
    <path
       style="fill:none;stroke:#a05a2c;stroke-width:2;stroke-linecap:butt;stroke-linejoin:miter;stroke-opacity:1;stroke-miterlimit:4;stroke-dasharray:none"
       d="m 347.14286,394.50504 -1.42857,3.92857 c 1.10219,7.60211 9.6589,7.30203 11.07142,0.71429"
       id="path3795"
       inkscape:connector-curvature="0"
       sodipodi:nodetypes="ccc" />
    <path
       style="fill:#010101;fill-opacity:1;stroke:#000000;stroke-width:1px;stroke-linecap:butt;stroke-linejoin:miter;stroke-opacity:1"
       d="m 378.57143,175.93361 c -31.13063,19.57254 -45.33739,40.68362 -55.71429,62.14286 l -8.26813,-10.62763 1.12528,-18.65809 c -34.82945,-4.00512 -5.21722,-10.69531 1.42857,-16.42857 -16.29356,-5.64778 -53.51833,-9.30211 5.71428,-22.14286 l 25.71429,-12.14285 z"
       id="path3797"
       inkscape:connector-curvature="0"
       sodipodi:nodetypes="cccccccc" />
    <path
       style="fill:#a18136;fill-opacity:1;stroke:#000000;stroke-width:1px;stroke-linecap:butt;stroke-linejoin:miter;stroke-opacity:1"
       d="m 448.50773,183.12592 c -1.73117,-30.02043 3.6119,-61.32709 -11.61675,-88.893427 l -34.34519,0 c -8.51561,-16.423328 -18.81751,-28.380938 -35.35534,-24.748738 -21.72563,4.552387 -26.16442,15.347239 0.50508,37.375645 -22.90651,1.38758 -51.4168,1.46364 -13.13199,17.17259 -8.02639,8.35711 -21.94544,14.90108 -13.63706,28.28427 -34.92531,-15.6516 -84.28673,-19.54823 -89.3985,-13.63706 7.38181,16.48443 66.10185,27.65801 109.60156,40.40611 z"
       id="path3799"
       inkscape:connector-curvature="0"
       sodipodi:nodetypes="cccccccccc" />
    <path
       style="fill:#a18136;fill-opacity:1;stroke:#000000;stroke-width:1px;stroke-linecap:butt;stroke-linejoin:miter;stroke-opacity:1"
       d="m 292.73502,138.40872 c 58.61284,40.42521 114.10592,74.20124 159.30824,85.1233 30.95024,3.58066 54.27908,1.06419 78.7919,-0.50508 -27.61084,-8.86132 -55.22167,-15.5098 -82.83251,-39.90102 -38.83273,-11.5035 -69.91259,-20.38058 -106.0555,-30.53917 -29.91463,-11.10633 -42.42939,-14.17501 -49.21213,-14.17803 z"
       id="path3801"
       inkscape:connector-curvature="0"
       sodipodi:nodetypes="cccccc" />
    <path
       style="fill:#3b2915;stroke:#000000;stroke-width:1px;stroke-linecap:butt;stroke-linejoin:miter;stroke-opacity:1;fill-opacity:1"
       d="m 337.5,151.29075 c -0.53937,-10.15308 3.44492,-15.02855 8.57143,-18.57143 76.63239,4.68553 79.31538,13.00791 101.78571,20.35715 l 1.42857,30.71428 c -35.5285,-11.20306 -72.46552,-22.14182 -111.78571,-32.5 z"
       id="path3803"
       inkscape:connector-curvature="0"
       sodipodi:nodetypes="ccccc" />
    <path
       style="fill:#f9f9f9;stroke:#000000;stroke-width:1px;stroke-linecap:butt;stroke-linejoin:miter;stroke-opacity:1;fill-opacity:1"
       d="M 258.57143,406.6479 C 302.38095,424.30767 346.19048,436.84536 390,428.07647 l -4.28571,35.71428 -44.28572,-2.85714 C 342.68162,448.7699 336.69796,439.01842 330,429.50504 c -24.43271,3.02174 -31.09299,14.9297 -40,25.71429 -20.55405,-7.23238 -21.61864,-31.78872 -31.42857,-48.57143 z"
       id="path3805"
       inkscape:connector-curvature="0"
       sodipodi:nodetypes="ccccccc" />
    <path
       style="fill:#d7a647;fill-opacity:1;stroke:#000000;stroke-width:1px;stroke-linecap:butt;stroke-linejoin:miter;stroke-opacity:1"
       d="m 278.29703,334.6488 c -44.63446,7.78417 -84.15324,29.77859 -116.67262,71.21575 21.15294,0.96854 42.56302,1.0371 61.11423,11.11168 -8.12006,3.71035 -17.3461,8.80318 -30.80966,19.1929 42.70678,22.36242 72.61221,55.09843 89.80641,104.31619 l 2.11748,15.38689 c 35.74893,-24.11398 36.59762,-52.66981 139.90612,-68.1853 -3.79988,-10.10153 -10.361,-20.20305 -22.22335,-30.30458 19.18977,-8.61129 39.06236,-11.76007 59.599,-9.59645 -20.20305,-21.55464 -40.40611,-61.26424 -60.60916,-92.42895 l -19.19289,61.6193 13.13198,-21.2132 c -31.05602,51.19666 -70.76693,104.1243 -108.08632,156.57364 -0.077,-50.07956 3.36094,-96.64416 -25.25382,-175.26146 l 8.3517,25.72299 z"
       id="path3827"
       inkscape:connector-curvature="0"
       sodipodi:nodetypes="cccccccccccccccc" />
    <path
       style="fill:#381301;stroke:#000000;stroke-width:1px;stroke-linecap:butt;stroke-linejoin:miter;stroke-opacity:1;fill-opacity:1"
       d="m 532.14286,613.79075 -105.71429,18.57143 c -5.1247,16.72902 0.67038,27.99815 10.71429,37.14286 L 540,640.93361 z"
       id="path3788"
       inkscape:connector-curvature="0"
       sodipodi:nodetypes="ccccc" />
    <path
       style="fill:#f7b28b;fill-opacity:1;stroke:#000000;stroke-width:1px;stroke-linecap:butt;stroke-linejoin:miter;stroke-opacity:1"
       d="m 456.78571,620.21933 -0.35714,0 0,7.14285 22.85714,-2.85714 -2.14285,-14.28571 c 0.65792,11.01814 3.04488,20.01907 15,17.85714 l 7.14285,0 0,5 c -23.73371,3.32229 -1.40223,27.42499 0.71429,14.28571 9.4468,-0.39918 18.71332,-0.61808 30,-2.85714 L 521.42857,615.21933 530,614.50504 c -9.33511,-12.61905 -10.32134,-18.45238 -32.5,-31.07143 z"
       id="path3778"
       inkscape:connector-curvature="0"
       sodipodi:nodetypes="cccccccccccccc" />
    <path
       style="fill:#f7b28b;stroke:#000000;stroke-width:1px;stroke-linecap:butt;stroke-linejoin:miter;stroke-opacity:1;fill-opacity:1"
       d="m 528.57143,645.21933 0,18.57142 c -7.61905,7.61905 -16.19048,7.61905 -25.71429,0 -7.38095,1.58966 -14.7619,6.55483 -22.14285,-0.71428 -4.27025,3.37973 -7.81046,8.94959 -15.71429,1.42857 l -2.14286,-18.57143 c 4.76191,-3.12001 9.52381,-3.30847 14.28572,-0.71428 7.14286,-15.04654 14.28571,-2.55734 21.42857,-3.57143 z"
       id="path3782"
       inkscape:connector-curvature="0"
       sodipodi:nodetypes="ccccccccc" />
    <path
       style="fill:none;stroke:#000000;stroke-width:1px;stroke-linecap:butt;stroke-linejoin:miter;stroke-opacity:1"
       d="M 476.42857,645.21933 480,663.07647"
       id="path3784"
       inkscape:connector-curvature="0" />
    <path
       style="fill:none;stroke:#000000;stroke-width:1px;stroke-linecap:butt;stroke-linejoin:miter;stroke-opacity:1"
       d="m 500,648.07647 2.14286,17.14286"
       id="path3786"
       inkscape:connector-curvature="0" />
    <path
       style="fill:#ecc742;stroke:#000000;stroke-width:1px;stroke-linecap:butt;stroke-linejoin:miter;stroke-opacity:1;fill-opacity:1"
       d="M 533.57143,615.21933 540,614.50504 l 7.14286,23.57143 -6.42857,2.14286 z"
       id="path3790"
       inkscape:connector-curvature="0" />
    <path
       style="fill:#9b9e83;stroke:#000000;stroke-width:1px;stroke-linecap:butt;stroke-linejoin:miter;stroke-opacity:1;fill-opacity:1"
       d="M 539.28571,606.6479 550,645.21933 c 69.28903,2.04342 123.79897,-7.5253 166.42857,-26.42858 L 710,576.6479 c -68.7658,-8.24775 -126.70151,0.16617 -170.71429,30 z"
       id="path3792"
       inkscape:connector-curvature="0"
       sodipodi:nodetypes="ccccc" />
    <path
       style="fill:none;stroke:#000000;stroke-width:1px;stroke-linecap:butt;stroke-linejoin:miter;stroke-opacity:1"
       d="M 539.28571,605.93361 C 625.26596,624.58782 671.06888,606.27889 710,581.6479"
       id="path3794"
       inkscape:connector-curvature="0"
       sodipodi:nodetypes="cc" />
    <path
       style="fill:#81babf;stroke:#000000;stroke-width:1px;stroke-linecap:butt;stroke-linejoin:miter;stroke-opacity:1;fill-opacity:1;opacity:1;filter:url(#filter3822)"
       d="m 561.42857,603.79075 c 24.8806,-7.80306 39.71302,-16.51959 104.28572,-20.71428 10.94292,-0.46673 19.39154,1.56084 28.57142,2.85714 -29.56683,15.15168 -72.82132,21.74857 -132.85714,17.85714 z"
       id="path3796"
       inkscape:connector-curvature="0"
       sodipodi:nodetypes="cccc" />
    <path
       style="fill:#e6e6e6;stroke:#000000;stroke-width:1.18907607000000000px;stroke-linecap:butt;stroke-linejoin:miter;stroke-opacity:1;filter:url(#filter3844)"
       d="m 82.579971,927.86088 c 6.942872,-5.68633 49.880749,-4.7527 75.340539,-4.54568 l -7.85541,5.55583 c -19.04342,-2.67406 -48.44171,-2.22563 -67.485129,-1.01015 z"
       id="path3834"
       inkscape:connector-curvature="0"
       sodipodi:nodetypes="cccc" />
    <path
       style="fill:#c9973f;stroke:#000000;stroke-width:1px;stroke-linecap:butt;stroke-linejoin:miter;stroke-opacity:1;fill-opacity:1"
       d="m 362.85714,659.1479 c 7.46934,14.65308 16.17603,28.8937 18.21429,45.35714 -28.60725,10.61946 -57.65403,6.92563 -83.57143,6.78572 l -6.42857,-54.28572 z"
       id="path3907"
       inkscape:connector-curvature="0"
       sodipodi:nodetypes="ccccc" />
    <path
       style="fill:#c5923d;stroke:#000000;stroke-width:1px;stroke-linecap:butt;stroke-linejoin:miter;stroke-opacity:1;fill-opacity:1"
       d="m 295.35714,630.57647 62.5,-0.35714 10.71429,33.92857 -72.14286,1.42857 z"
       id="path3905"
       inkscape:connector-curvature="0" />
    <path
       style="fill:#b1822d;fill-opacity:1;stroke:#000000;stroke-width:1px;stroke-linecap:butt;stroke-linejoin:miter;stroke-opacity:1"
       d="m 133.34014,569.50927 c 11.11168,3.36717 12.96866,10.84755 33.33503,10.10152 26.44303,11.64887 48.67876,10.67583 72.73098,15.15229 l 4.04061,-12.12183 15.15229,4.04061 4.04061,-5.05076 22.22336,4.04061 8.08122,16.16244 71.72083,6.06091 -71.72083,2.02031 19.1929,75.76144 c -10.13132,11.26962 -21.5204,14.99273 -34.34519,10.10152 -1.24856,-28.16507 -0.78158,-57.1879 -7.07107,-82.8325 l -24.24366,4.04061 -15.15229,119.198 c -10.54047,11.27399 -24.28472,6.52906 -37.37564,5.05076 13.61629,-43.51965 28.27213,-82.88107 39.39595,-136.37059 l -87.88327,-14.14214 0,-11.11168 z"
       id="path3893"
       inkscape:connector-curvature="0"
       sodipodi:nodetypes="cccccccccccccccccccc" />
    <path
       style="fill:none;stroke:#000000;stroke-width:1px;stroke-linecap:butt;stroke-linejoin:miter;stroke-opacity:1"
       d="m 259.6092,587.69201 c 7.93275,4.5258 11.25645,13.66065 11.11168,26.26397"
       id="path3895"
       inkscape:connector-curvature="0"
       sodipodi:nodetypes="cc" />
    <path
       style="fill:none;stroke:#000000;stroke-width:1px;stroke-linecap:butt;stroke-linejoin:miter;stroke-opacity:1"
       d="m 241.42646,589.71232 c 3.59644,8.75465 6.16489,17.50931 7.07107,26.26396"
       id="path3897"
       inkscape:connector-curvature="0"
       sodipodi:nodetypes="cc" />
    <path
       style="fill:none;stroke:#000000;stroke-width:1px;stroke-linecap:butt;stroke-linejoin:miter;stroke-opacity:1"
       d="m 153.21429,570.93361 c 2.41744,4.24649 9.88818,7.77108 18.92857,11.07143"
       id="path3899"
       inkscape:connector-curvature="0"
       sodipodi:nodetypes="cc" />
    <path
       style="fill:#c9973f;stroke:#000000;stroke-width:1px;stroke-linecap:butt;stroke-linejoin:miter;stroke-opacity:1;fill-opacity:1"
       d="m 137.14286,642.36218 c -7.76574,14.46513 -12.70659,30.06022 -15.71429,46.42857 22.80132,11.68035 52.95746,11.10266 81.07143,13.92858 3.32153,-21.78572 10.07498,-43.57143 17.14286,-65.35715 z"
       id="path3903"
       inkscape:connector-curvature="0"
       sodipodi:nodetypes="ccccc" />
    <path
       style="fill:#c5923d;stroke:#000000;stroke-width:1px;stroke-linecap:butt;stroke-linejoin:miter;stroke-opacity:1;fill-opacity:1"
       d="m 150.35714,614.50504 c -12.08605,8.23322 -15.5354,19.34534 -19.28571,30.35714 23.45113,9.21628 50.76152,12.25775 78.92857,13.92857 0.78362,-6.90476 0.22803,-13.80952 6.42857,-20.71428 l 5.35714,-10.71429 c -27.57275,-2.8745 -51.47464,-7.12558 -71.42857,-12.85714 z"
       id="path3901"
       inkscape:connector-curvature="0"
       sodipodi:nodetypes="cccccc" />
    <path
       sodipodi:type="arc"
       style="fill:#a77e34;fill-opacity:1;stroke:#a05a2c;stroke-width:2;stroke-miterlimit:4;stroke-opacity:1;stroke-dasharray:none"
       id="path3909"
       sodipodi:cx="181.42857"
       sodipodi:cy="641.82648"
       sodipodi:rx="7.8571429"
       sodipodi:ry="6.9642859"
       d="m 189.28572,641.82648 a 7.8571429,6.9642859 0 1 1 -15.71429,0 7.8571429,6.9642859 0 1 1 15.71429,0 z"
       transform="translate(-3.2142857,0.35714286)" />
    <path
       sodipodi:type="arc"
       style="opacity:1;fill:#a77e34;fill-opacity:1;stroke:#a05a2c;stroke-width:2;stroke-miterlimit:4;stroke-opacity:1;stroke-dasharray:none"
       id="path3909-4"
       sodipodi:cx="181.42857"
       sodipodi:cy="641.82648"
       sodipodi:rx="7.8571429"
       sodipodi:ry="6.9642859"
       d="m 189.28572,641.82648 a 7.8571429,6.9642859 0 1 1 -15.71429,0 7.8571429,6.9642859 0 1 1 15.71429,0 z"
       transform="translate(150.71428,12.321419)" />
    <path
       sodipodi:type="arc"
       style="opacity:1;fill:#a77e34;fill-opacity:1;stroke:#a05a2c;stroke-width:2;stroke-miterlimit:4;stroke-opacity:1;stroke-dasharray:none"
       id="path3909-4-8"
       sodipodi:cx="181.42857"
       sodipodi:cy="641.82648"
       sodipodi:rx="7.8571429"
       sodipodi:ry="6.9642859"
       d="m 189.28572,641.82648 a 7.8571429,6.9642859 0 1 1 -15.71429,0 7.8571429,6.9642859 0 1 1 15.71429,0 z"
       transform="translate(150,-66.25001)" />
    <path
       sodipodi:type="arc"
       style="opacity:1;fill:#a77e34;fill-opacity:1;stroke:#a05a2c;stroke-width:2;stroke-miterlimit:4;stroke-opacity:1;stroke-dasharray:none"
       id="path3909-4-8-8"
       sodipodi:cx="181.42857"
       sodipodi:cy="641.82648"
       sodipodi:rx="7.8571429"
       sodipodi:ry="6.9642859"
       d="m 189.28572,641.82648 a 7.8571429,6.9642859 0 1 1 -15.71429,0 7.8571429,6.9642859 0 1 1 15.71429,0 z"
       transform="translate(157.85714,-115.53572)" />
    <path
       sodipodi:type="arc"
       style="opacity:1;fill:#a77e34;fill-opacity:1;stroke:#a05a2c;stroke-width:2;stroke-miterlimit:4;stroke-opacity:1;stroke-dasharray:none"
       id="path3909-4-8-8-2"
       sodipodi:cx="181.42857"
       sodipodi:cy="641.82648"
       sodipodi:rx="7.8571429"
       sodipodi:ry="6.9642859"
       d="m 189.28572,641.82648 a 7.8571429,6.9642859 0 1 1 -15.71429,0 7.8571429,6.9642859 0 1 1 15.71429,0 z"
       transform="translate(62.499998,-128.03572)" />
    <path
       sodipodi:type="arc"
       style="opacity:1;fill:#a77e34;fill-opacity:1;stroke:#a05a2c;stroke-width:2;stroke-miterlimit:4;stroke-opacity:1;stroke-dasharray:none"
       id="path3909-4-8-8-2-4"
       sodipodi:cx="181.42857"
       sodipodi:cy="641.82648"
       sodipodi:rx="7.8571429"
       sodipodi:ry="6.9642859"
       d="m 189.28572,641.82648 a 7.8571429,6.9642859 0 1 1 -15.71429,0 7.8571429,6.9642859 0 1 1 15.71429,0 z"
       transform="translate(47.142855,-84.821438)" />
    <path
       sodipodi:type="arc"
       style="opacity:1;fill:#a77e34;fill-opacity:1;stroke:#a05a2c;stroke-width:2;stroke-miterlimit:4;stroke-opacity:1;stroke-dasharray:none"
       id="path3909-4-8-8-2-4-5"
       sodipodi:cx="181.42857"
       sodipodi:cy="641.82648"
       sodipodi:rx="7.8571429"
       sodipodi:ry="6.9642859"
       d="m 189.28572,641.82648 a 7.8571429,6.9642859 0 1 1 -15.71429,0 7.8571429,6.9642859 0 1 1 15.71429,0 z"
       transform="translate(265,-37.678581)" />
    <path
       style="fill:#b1822d;fill-opacity:1;stroke:#000000;stroke-width:1px;stroke-linecap:butt;stroke-linejoin:miter;stroke-opacity:1"
       d="m 491.42857,575.57646 c -18.97313,13.13781 -29.72546,31.89158 -42.5,48.57144 l 7.85714,1.42857 c 16.00261,-18.49709 32.05921,-28.49749 47.14286,-39.64286 -4.18762,-5.87051 -1.51497,-8.05462 -12.5,-10.35715 z"
       id="path4019"
       inkscape:connector-curvature="0"
       sodipodi:nodetypes="ccccc" />
    <path
       style="fill:none;stroke:#c5923d;stroke-width:1px;stroke-linecap:butt;stroke-linejoin:miter;stroke-opacity:1"
       d="m 397.85714,565.57647 c 6.54762,-6.2211 13.09524,-6.87453 19.64286,-8.57143 -7.15763,3.94595 -13.82086,7.9743 -15.35714,12.85714 1.38095,4.33335 3.77032,2.61615 6.07143,1.42857"
       id="path4021"
       inkscape:connector-curvature="0"
       sodipodi:nodetypes="cccc" />
  </g>
</svg>
